ISO-10303-21;
HEADER;
FILE_DESCRIPTION (( 'STEP AP203' ),
    '1' );
FILE_NAME ('5909K52_0.032 Thick Washer for 1-1-4 Shaft Diameter Needle-Roller Thrust Bearing.STEP',
    '2024-01-04T21:12:55',
    ( 'Administrator' ),
    ( 'Managed by Terraform' ),
    'SwSTEP 2.0',
    'SolidWorks 2017',
    '' );
FILE_SCHEMA (( 'CONFIG_CONTROL_DESIGN' ));
ENDSEC;

DATA;
#1 = ADVANCED_BREP_SHAPE_REPRESENTATION ( '5909K52_0.032 Thick Washer for 1-1-4 Shaft Diameter Needle-Roller Thrust Bearing', ( #45, #122 ), #198 ) ;
#2 = LOCAL_TIME ( 15, 12, 55.00000000000000000, #85 ) ;
#3 = UNCERTAINTY_MEASURE_WITH_UNIT (LENGTH_MEASURE( 1.000000000000000100E-005 ), #14, 'distance_accuracy_value', 'NONE');
#4 = EDGE_CURVE ( 'NONE', #242, #76, #179, .T. ) ;
#5 = CC_DESIGN_DATE_AND_TIME_ASSIGNMENT ( #89, #93, ( #8 ) ) ;
#6 = CIRCLE ( 'NONE', #65, 0.6260000000000000000 ) ;
#7 = ORIENTED_EDGE ( 'NONE', *, *, #152, .T. ) ;
#8 = SECURITY_CLASSIFICATION ( '', '', #251 ) ;
#9 = EDGE_CURVE ( 'NONE', #236, #225, #78, .T. ) ;
#10 = CARTESIAN_POINT ( 'NONE',  ( 0.9687500000000001100, 0.0000000000000000000, 0.01599999999999994500 ) ) ;
#11 = COORDINATED_UNIVERSAL_TIME_OFFSET ( 6, 0, .BEHIND. ) ;
#12 = EDGE_LOOP ( 'NONE', ( #233, #104, #37, #202 ) ) ;
#13 = PRODUCT_RELATED_PRODUCT_CATEGORY ( 'detail', '', ( #161 ) ) ;
#14 =( CONVERSION_BASED_UNIT ( 'INCH', #149 ) LENGTH_UNIT ( ) NAMED_UNIT ( #186 ) );
#15 = CIRCLE ( 'NONE', #16, 0.9687500000000001100 ) ;
#16 = AXIS2_PLACEMENT_3D ( 'NONE', #73, #58, #61 ) ;
#17 = APPROVAL_ROLE ( '' ) ;
#18 = APPROVAL_PERSON_ORGANIZATION ( #129, #22, #116 ) ;
#19 = ORIENTED_EDGE ( 'NONE', *, *, #25, .T. ) ;
#20 =( NAMED_UNIT ( * ) PLANE_ANGLE_UNIT ( ) SI_UNIT ( $, .RADIAN. ) );
#21 = DIRECTION ( 'NONE',  ( 0.0000000000000000000, 0.0000000000000000000, 1.000000000000000000 ) ) ;
#22 = APPROVAL ( #228, 'UNSPECIFIED' ) ;
#23 = CIRCLE ( 'NONE', #103, 0.9687500000000001100 ) ;
#24 = APPROVAL ( #177, 'UNSPECIFIED' ) ;
#25 = EDGE_CURVE ( 'NONE', #43, #166, #252, .T. ) ;
#26 = APPROVAL_DATE_TIME ( #238, #22 ) ;
#27 = CYLINDRICAL_SURFACE ( 'NONE', #42, 0.6260000000000000000 ) ;
#28 = DIRECTION ( 'NONE',  ( 1.000000000000000000, 0.0000000000000000000, 0.0000000000000000000 ) ) ;
#29 = PLANE ( 'NONE',  #47 ) ;
#30 = DIRECTION ( 'NONE',  ( 1.000000000000000000, 0.0000000000000000000, 0.0000000000000000000 ) ) ;
#31 = CARTESIAN_POINT ( 'NONE',  ( -0.6260000000000000000, 7.666288962662431400E-017, -0.01600000000000005900 ) ) ;
#32 = DIRECTION ( 'NONE',  ( 0.0000000000000000000, 0.0000000000000000000, 1.000000000000000000 ) ) ;
#33 = COORDINATED_UNIVERSAL_TIME_OFFSET ( 6, 0, .BEHIND. ) ;
#34 = VECTOR ( 'NONE', #184, 39.37007874015748100 ) ;
#35 = CC_DESIGN_SECURITY_CLASSIFICATION ( #8, ( #44 ) ) ;
#36 = ADVANCED_FACE ( 'NONE', ( #68 ), #27, .F. ) ;
#37 = ORIENTED_EDGE ( 'NONE', *, *, #105, .T. ) ;
#38 = PERSON_AND_ORGANIZATION_ROLE ( 'creator' ) ;
#39 = APPROVAL_ROLE ( '' ) ;
#40 = EDGE_LOOP ( 'NONE', ( #82, #201 ) ) ;
#41 = DATE_TIME_ROLE ( 'creation_date' ) ;
#42 = AXIS2_PLACEMENT_3D ( 'NONE', #50, #144, #30 ) ;
#43 = VERTEX_POINT ( 'NONE', #88 ) ;
#44 = PRODUCT_DEFINITION_FORMATION_WITH_SPECIFIED_SOURCE ( 'ANY', '', #161, .NOT_KNOWN. ) ;
#45 = MANIFOLD_SOLID_BREP ( 'Boss-Extrude1', #211 ) ;
#46 = COORDINATED_UNIVERSAL_TIME_OFFSET ( 6, 0, .BEHIND. ) ;
#47 = AXIS2_PLACEMENT_3D ( 'NONE', #169, #106, #240 ) ;
#48 = CARTESIAN_POINT ( 'NONE',  ( 0.0000000000000000000, 0.0000000000000000000, -0.01600000000000005900 ) ) ;
#49 = CARTESIAN_POINT ( 'NONE',  ( 0.9687500000000001100, 0.0000000000000000000, -0.01600000000000005900 ) ) ;
#50 = CARTESIAN_POINT ( 'NONE',  ( 0.0000000000000000000, 0.0000000000000000000, -0.01600000000000005900 ) ) ;
#51 = AXIS2_PLACEMENT_3D ( 'NONE', #48, #148, #183 ) ;
#52 = DIRECTION ( 'NONE',  ( 1.000000000000000000, 0.0000000000000000000, 0.0000000000000000000 ) ) ;
#53 = DIRECTION ( 'NONE',  ( 0.0000000000000000000, 0.0000000000000000000, 1.000000000000000000 ) ) ;
#54 = DATE_AND_TIME ( #108, #241 ) ;
#55 = ORIENTED_EDGE ( 'NONE', *, *, #84, .T. ) ;
#56 = DIRECTION ( 'NONE',  ( 1.000000000000000000, 0.0000000000000000000, 0.0000000000000000000 ) ) ;
#57 = PLANE ( 'NONE',  #134 ) ;
#58 = DIRECTION ( 'NONE',  ( 0.0000000000000000000, 0.0000000000000000000, 1.000000000000000000 ) ) ;
#59 = FACE_BOUND ( 'NONE', #86, .T. ) ;
#60 = AXIS2_PLACEMENT_3D ( 'NONE', #167, #53, #218 ) ;
#61 = DIRECTION ( 'NONE',  ( 1.000000000000000000, 0.0000000000000000000, 0.0000000000000000000 ) ) ;
#62 = CC_DESIGN_PERSON_AND_ORGANIZATION_ASSIGNMENT ( #155, #232, ( #44 ) ) ;
#63 = PERSON_AND_ORGANIZATION ( #215, #71 ) ;
#64 = FACE_BOUND ( 'NONE', #173, .T. ) ;
#65 = AXIS2_PLACEMENT_3D ( 'NONE', #113, #110, #245 ) ;
#66 = FACE_OUTER_BOUND ( 'NONE', #12, .T. ) ;
#67 = DATE_AND_TIME ( #181, #200 ) ;
#68 = FACE_OUTER_BOUND ( 'NONE', #163, .T. ) ;
#69 = DIRECTION ( 'NONE',  ( 1.000000000000000000, 0.0000000000000000000, 0.0000000000000000000 ) ) ;
#70 = PERSON_AND_ORGANIZATION ( #215, #71 ) ;
#71 = ORGANIZATION ( 'UNSPECIFIED', 'UNSPECIFIED', '' ) ;
#72 = CARTESIAN_POINT ( 'NONE',  ( 0.0000000000000000000, 0.0000000000000000000, -0.01600000000000005900 ) ) ;
#73 = CARTESIAN_POINT ( 'NONE',  ( 0.0000000000000000000, 0.0000000000000000000, 0.01599999999999994500 ) ) ;
#74 = CARTESIAN_POINT ( 'NONE',  ( -0.9687500000000001100, 1.186376586673998700E-016, 0.01599999999999994500 ) ) ;
#75 = APPROVAL_PERSON_ORGANIZATION ( #194, #24, #17 ) ;
#76 = VERTEX_POINT ( 'NONE', #10 ) ;
#77 = CARTESIAN_POINT ( 'NONE',  ( 0.0000000000000000000, 0.0000000000000000000, 0.01599999999999994500 ) ) ;
#78 = LINE ( 'NONE', #31, #34 ) ;
#79 = ORIENTED_EDGE ( 'NONE', *, *, #138, .F. ) ;
#80 = AXIS2_PLACEMENT_3D ( 'NONE', #235, #164, #28 ) ;
#81 = EDGE_CURVE ( 'NONE', #166, #76, #23, .T. ) ;
#82 = ORIENTED_EDGE ( 'NONE', *, *, #84, .F. ) ;
#83 = ORIENTED_EDGE ( 'NONE', *, *, #191, .F. ) ;
#84 = EDGE_CURVE ( 'NONE', #242, #43, #250, .T. ) ;
#85 = COORDINATED_UNIVERSAL_TIME_OFFSET ( 6, 0, .BEHIND. ) ;
#86 = EDGE_LOOP ( 'NONE', ( #95, #79 ) ) ;
#87 = CARTESIAN_POINT ( 'NONE',  ( 0.6260000000000000000, 0.0000000000000000000, -0.01600000000000005900 ) ) ;
#88 = CARTESIAN_POINT ( 'NONE',  ( -0.9687500000000001100, 1.186376586673998700E-016, -0.01600000000000005900 ) ) ;
#89 = DATE_AND_TIME ( #188, #192 ) ;
#90 = EDGE_LOOP ( 'NONE', ( #221, #239 ) ) ;
#91 = CARTESIAN_POINT ( 'NONE',  ( 0.6260000000000000000, 0.0000000000000000000, -0.01600000000000005900 ) ) ;
#92 = CARTESIAN_POINT ( 'NONE',  ( 0.0000000000000000000, 0.0000000000000000000, -0.01600000000000005900 ) ) ;
#93 = DATE_TIME_ROLE ( 'classification_date' ) ;
#94 = DATE_AND_TIME ( #126, #210 ) ;
#95 = ORIENTED_EDGE ( 'NONE', *, *, #227, .F. ) ;
#96 = ADVANCED_FACE ( 'NONE', ( #64, #131 ), #29, .F. ) ;
#97 = APPLICATION_PROTOCOL_DEFINITION ( 'international standard', 'config_control_design', 1994, #178 ) ;
#98 = FACE_OUTER_BOUND ( 'NONE', #213, .T. ) ;
#99 = APPLICATION_CONTEXT ( 'configuration controlled 3d designs of mechanical parts and assemblies' ) ;
#100 = VECTOR ( 'NONE', #219, 39.37007874015748100 ) ;
#101 = APPROVAL_DATE_TIME ( #67, #174 ) ;
#102 = ORIENTED_EDGE ( 'NONE', *, *, #105, .F. ) ;
#103 = AXIS2_PLACEMENT_3D ( 'NONE', #147, #203, #69 ) ;
#104 = ORIENTED_EDGE ( 'NONE', *, *, #152, .F. ) ;
#105 = EDGE_CURVE ( 'NONE', #139, #189, #153, .T. ) ;
#106 = DIRECTION ( 'NONE',  ( 0.0000000000000000000, 0.0000000000000000000, 1.000000000000000000 ) ) ;
#107 = CC_DESIGN_PERSON_AND_ORGANIZATION_ASSIGNMENT ( #63, #121, ( #44 ) ) ;
#108 = CALENDAR_DATE ( 2024, 4, 1 ) ;
#109 = EDGE_LOOP ( 'NONE', ( #55, #19, #83, #136 ) ) ;
#110 = DIRECTION ( 'NONE',  ( 0.0000000000000000000, 0.0000000000000000000, 1.000000000000000000 ) ) ;
#111 = DIRECTION ( 'NONE',  ( 1.000000000000000000, 0.0000000000000000000, -0.0000000000000000000 ) ) ;
#112 = EDGE_CURVE ( 'NONE', #43, #242, #165, .T. ) ;
#113 = CARTESIAN_POINT ( 'NONE',  ( 0.0000000000000000000, 0.0000000000000000000, -0.01600000000000005900 ) ) ;
#114 = CIRCLE ( 'NONE', #237, 0.6260000000000000000 ) ;
#115 = ADVANCED_FACE ( 'NONE', ( #123 ), #214, .T. ) ;
#116 = APPROVAL_ROLE ( '' ) ;
#117 = CYLINDRICAL_SURFACE ( 'NONE', #185, 0.9687500000000001100 ) ;
#118 =( NAMED_UNIT ( * ) SI_UNIT ( $, .STERADIAN. ) SOLID_ANGLE_UNIT ( ) );
#119 = PRODUCT_DEFINITION_SHAPE ( 'NONE', 'NONE',  #142 ) ;
#120 = CC_DESIGN_PERSON_AND_ORGANIZATION_ASSIGNMENT ( #224, #38, ( #142 ) ) ;
#121 = PERSON_AND_ORGANIZATION_ROLE ( 'design_supplier' ) ;
#122 = AXIS2_PLACEMENT_3D ( 'NONE', #157, #21, #212 ) ;
#123 = FACE_OUTER_BOUND ( 'NONE', #109, .T. ) ;
#124 = SHAPE_DEFINITION_REPRESENTATION ( #119, #1 ) ;
#125 = CC_DESIGN_APPROVAL ( #174, ( #142 ) ) ;
#126 = CALENDAR_DATE ( 2024, 4, 1 ) ;
#127 = VECTOR ( 'NONE', #223, 39.37007874015748100 ) ;
#128 = DIRECTION ( 'NONE',  ( 0.0000000000000000000, 0.0000000000000000000, 1.000000000000000000 ) ) ;
#129 = PERSON_AND_ORGANIZATION ( #215, #71 ) ;
#130 = CARTESIAN_POINT ( 'NONE',  ( 0.0000000000000000000, 0.0000000000000000000, 0.01599999999999994500 ) ) ;
#131 = FACE_OUTER_BOUND ( 'NONE', #40, .T. ) ;
#132 = CC_DESIGN_PERSON_AND_ORGANIZATION_ASSIGNMENT ( #230, #231, ( #161 ) ) ;
#133 = DIRECTION ( 'NONE',  ( 1.000000000000000000, 0.0000000000000000000, 0.0000000000000000000 ) ) ;
#134 = AXIS2_PLACEMENT_3D ( 'NONE', #77, #208, #111 ) ;
#135 = ADVANCED_FACE ( 'NONE', ( #66 ), #207, .F. ) ;
#136 = ORIENTED_EDGE ( 'NONE', *, *, #4, .F. ) ;
#137 = ORIENTED_EDGE ( 'NONE', *, *, #4, .T. ) ;
#138 = EDGE_CURVE ( 'NONE', #225, #189, #114, .T. ) ;
#139 = VERTEX_POINT ( 'NONE', #91 ) ;
#140 = COORDINATED_UNIVERSAL_TIME_OFFSET ( 6, 0, .BEHIND. ) ;
#141 = ORIENTED_EDGE ( 'NONE', *, *, #25, .F. ) ;
#142 = PRODUCT_DEFINITION ( 'UNKNOWN', '', #44, #162 ) ;
#143 = CARTESIAN_POINT ( 'NONE',  ( -0.9687500000000001100, 1.186376586673998700E-016, -0.01600000000000005900 ) ) ;
#144 = DIRECTION ( 'NONE',  ( 0.0000000000000000000, 0.0000000000000000000, 1.000000000000000000 ) ) ;
#145 = AXIS2_PLACEMENT_3D ( 'NONE', #220, #168, #52 ) ;
#146 = ORIENTED_EDGE ( 'NONE', *, *, #159, .T. ) ;
#147 = CARTESIAN_POINT ( 'NONE',  ( 0.0000000000000000000, 0.0000000000000000000, 0.01599999999999994500 ) ) ;
#148 = DIRECTION ( 'NONE',  ( 0.0000000000000000000, 0.0000000000000000000, 1.000000000000000000 ) ) ;
#149 = LENGTH_MEASURE_WITH_UNIT ( LENGTH_MEASURE( 0.02539999999999999900 ), #244 );
#150 = CIRCLE ( 'NONE', #175, 0.6260000000000000000 ) ;
#151 = CARTESIAN_POINT ( 'NONE',  ( -0.6260000000000000000, 7.666288962662431400E-017, -0.01600000000000005900 ) ) ;
#152 = EDGE_CURVE ( 'NONE', #139, #236, #6, .T. ) ;
#153 = LINE ( 'NONE', #87, #216 ) ;
#154 = MECHANICAL_CONTEXT ( 'NONE', #178, 'mechanical' ) ;
#155 = PERSON_AND_ORGANIZATION ( #215, #71 ) ;
#156 = ORIENTED_EDGE ( 'NONE', *, *, #112, .T. ) ;
#157 = CARTESIAN_POINT ( 'NONE',  ( 0.0000000000000000000, 0.0000000000000000000, 0.0000000000000000000 ) ) ;
#158 = AXIS2_PLACEMENT_3D ( 'NONE', #92, #243, #246 ) ;
#159 = EDGE_CURVE ( 'NONE', #236, #139, #176, .T. ) ;
#160 = FACE_OUTER_BOUND ( 'NONE', #90, .T. ) ;
#161 = PRODUCT ( '5909K52_0.032 Thick Washer for 1-1-4 Shaft Diameter Needle-Roller Thrust Bearing', '5909K52_0.032 Thick Washer for 1-1-4 Shaft Diameter Needle-Roller Thrust Bearing', '', ( #154 ) ) ;
#162 = DESIGN_CONTEXT ( 'detailed design', #99, 'design' ) ;
#163 = EDGE_LOOP ( 'NONE', ( #195, #205, #217, #102 ) ) ;
#164 = DIRECTION ( 'NONE',  ( 0.0000000000000000000, 0.0000000000000000000, 1.000000000000000000 ) ) ;
#165 = CIRCLE ( 'NONE', #51, 0.9687500000000001100 ) ;
#166 = VERTEX_POINT ( 'NONE', #74 ) ;
#167 = CARTESIAN_POINT ( 'NONE',  ( 0.0000000000000000000, 0.0000000000000000000, -0.01600000000000005900 ) ) ;
#168 = DIRECTION ( 'NONE',  ( 0.0000000000000000000, 0.0000000000000000000, 1.000000000000000000 ) ) ;
#169 = CARTESIAN_POINT ( 'NONE',  ( 0.0000000000000000000, 0.0000000000000000000, -0.01600000000000005900 ) ) ;
#170 = CARTESIAN_POINT ( 'NONE',  ( 0.9687500000000001100, 0.0000000000000000000, -0.01600000000000005900 ) ) ;
#171 = CC_DESIGN_PERSON_AND_ORGANIZATION_ASSIGNMENT ( #197, #196, ( #8 ) ) ;
#172 = DIRECTION ( 'NONE',  ( 0.0000000000000000000, 0.0000000000000000000, 1.000000000000000000 ) ) ;
#173 = EDGE_LOOP ( 'NONE', ( #7, #146 ) ) ;
#174 = APPROVAL ( #193, 'UNSPECIFIED' ) ;
#175 = AXIS2_PLACEMENT_3D ( 'NONE', #130, #187, #133 ) ;
#176 = CIRCLE ( 'NONE', #158, 0.6260000000000000000 ) ;
#177 = APPROVAL_STATUS ( 'not_yet_approved' ) ;
#178 = APPLICATION_CONTEXT ( 'configuration controlled 3d designs of mechanical parts and assemblies' ) ;
#179 = LINE ( 'NONE', #49, #100 ) ;
#180 = APPROVAL_DATE_TIME ( #94, #24 ) ;
#181 = CALENDAR_DATE ( 2024, 4, 1 ) ;
#182 = ORIENTED_EDGE ( 'NONE', *, *, #81, .F. ) ;
#183 = DIRECTION ( 'NONE',  ( 1.000000000000000000, 0.0000000000000000000, 0.0000000000000000000 ) ) ;
#184 = DIRECTION ( 'NONE',  ( 0.0000000000000000000, 0.0000000000000000000, 1.000000000000000000 ) ) ;
#185 = AXIS2_PLACEMENT_3D ( 'NONE', #72, #32, #56 ) ;
#186 = DIMENSIONAL_EXPONENTS ( 1.000000000000000000, 0.0000000000000000000, 0.0000000000000000000, 0.0000000000000000000, 0.0000000000000000000, 0.0000000000000000000, 0.0000000000000000000 ) ;
#187 = DIRECTION ( 'NONE',  ( 0.0000000000000000000, 0.0000000000000000000, 1.000000000000000000 ) ) ;
#188 = CALENDAR_DATE ( 2024, 4, 1 ) ;
#189 = VERTEX_POINT ( 'NONE', #206 ) ;
#190 = CARTESIAN_POINT ( 'NONE',  ( 0.0000000000000000000, 0.0000000000000000000, 0.01599999999999994500 ) ) ;
#191 = EDGE_CURVE ( 'NONE', #76, #166, #15, .T. ) ;
#192 = LOCAL_TIME ( 15, 12, 55.00000000000000000, #33 ) ;
#193 = APPROVAL_STATUS ( 'not_yet_approved' ) ;
#194 = PERSON_AND_ORGANIZATION ( #215, #71 ) ;
#195 = ORIENTED_EDGE ( 'NONE', *, *, #159, .F. ) ;
#196 = PERSON_AND_ORGANIZATION_ROLE ( 'classification_officer' ) ;
#197 = PERSON_AND_ORGANIZATION ( #215, #71 ) ;
#198 =( GEOMETRIC_REPRESENTATION_CONTEXT ( 3 ) GLOBAL_UNCERTAINTY_ASSIGNED_CONTEXT ( ( #3 ) ) GLOBAL_UNIT_ASSIGNED_CONTEXT ( ( #14, #20, #118 ) ) REPRESENTATION_CONTEXT ( 'NONE', 'WORKASPACE' ) );
#199 = CC_DESIGN_APPROVAL ( #22, ( #8 ) ) ;
#200 = LOCAL_TIME ( 15, 12, 55.00000000000000000, #46 ) ;
#201 = ORIENTED_EDGE ( 'NONE', *, *, #112, .F. ) ;
#202 = ORIENTED_EDGE ( 'NONE', *, *, #227, .T. ) ;
#203 = DIRECTION ( 'NONE',  ( 0.0000000000000000000, 0.0000000000000000000, 1.000000000000000000 ) ) ;
#204 = APPROVAL_PERSON_ORGANIZATION ( #70, #174, #39 ) ;
#205 = ORIENTED_EDGE ( 'NONE', *, *, #9, .T. ) ;
#206 = CARTESIAN_POINT ( 'NONE',  ( 0.6260000000000000000, 0.0000000000000000000, 0.01599999999999994500 ) ) ;
#207 = CYLINDRICAL_SURFACE ( 'NONE', #80, 0.6260000000000000000 ) ;
#208 = DIRECTION ( 'NONE',  ( 0.0000000000000000000, 0.0000000000000000000, 1.000000000000000000 ) ) ;
#209 = ADVANCED_FACE ( 'NONE', ( #160, #59 ), #57, .T. ) ;
#210 = LOCAL_TIME ( 15, 12, 55.00000000000000000, #140 ) ;
#211 = CLOSED_SHELL ( 'NONE', ( #36, #115, #248, #96, #135, #209 ) ) ;
#212 = DIRECTION ( 'NONE',  ( 1.000000000000000000, 0.0000000000000000000, 0.0000000000000000000 ) ) ;
#213 = EDGE_LOOP ( 'NONE', ( #141, #156, #137, #182 ) ) ;
#214 = CYLINDRICAL_SURFACE ( 'NONE', #145, 0.9687500000000001100 ) ;
#215 = PERSON ( 'UNSPECIFIED', 'UNSPECIFIED', 'UNSPECIFIED', ('UNSPECIFIED'), ('UNSPECIFIED'), ('UNSPECIFIED') ) ;
#216 = VECTOR ( 'NONE', #128, 39.37007874015748100 ) ;
#217 = ORIENTED_EDGE ( 'NONE', *, *, #138, .T. ) ;
#218 = DIRECTION ( 'NONE',  ( 1.000000000000000000, 0.0000000000000000000, 0.0000000000000000000 ) ) ;
#219 = DIRECTION ( 'NONE',  ( 0.0000000000000000000, 0.0000000000000000000, 1.000000000000000000 ) ) ;
#220 = CARTESIAN_POINT ( 'NONE',  ( 0.0000000000000000000, 0.0000000000000000000, -0.01600000000000005900 ) ) ;
#221 = ORIENTED_EDGE ( 'NONE', *, *, #191, .T. ) ;
#222 = CARTESIAN_POINT ( 'NONE',  ( -0.6260000000000000000, 7.666288962662431400E-017, 0.01599999999999994500 ) ) ;
#223 = DIRECTION ( 'NONE',  ( 0.0000000000000000000, 0.0000000000000000000, 1.000000000000000000 ) ) ;
#224 = PERSON_AND_ORGANIZATION ( #215, #71 ) ;
#225 = VERTEX_POINT ( 'NONE', #222 ) ;
#226 = DIRECTION ( 'NONE',  ( 1.000000000000000000, 0.0000000000000000000, 0.0000000000000000000 ) ) ;
#227 = EDGE_CURVE ( 'NONE', #189, #225, #150, .T. ) ;
#228 = APPROVAL_STATUS ( 'not_yet_approved' ) ;
#229 = APPLICATION_PROTOCOL_DEFINITION ( 'international standard', 'config_control_design', 1994, #99 ) ;
#230 = PERSON_AND_ORGANIZATION ( #215, #71 ) ;
#231 = PERSON_AND_ORGANIZATION_ROLE ( 'design_owner' ) ;
#232 = PERSON_AND_ORGANIZATION_ROLE ( 'creator' ) ;
#233 = ORIENTED_EDGE ( 'NONE', *, *, #9, .F. ) ;
#234 = CALENDAR_DATE ( 2024, 4, 1 ) ;
#235 = CARTESIAN_POINT ( 'NONE',  ( 0.0000000000000000000, 0.0000000000000000000, -0.01600000000000005900 ) ) ;
#236 = VERTEX_POINT ( 'NONE', #151 ) ;
#237 = AXIS2_PLACEMENT_3D ( 'NONE', #190, #172, #226 ) ;
#238 = DATE_AND_TIME ( #234, #2 ) ;
#239 = ORIENTED_EDGE ( 'NONE', *, *, #81, .T. ) ;
#240 = DIRECTION ( 'NONE',  ( 1.000000000000000000, 0.0000000000000000000, -0.0000000000000000000 ) ) ;
#241 = LOCAL_TIME ( 15, 12, 55.00000000000000000, #11 ) ;
#242 = VERTEX_POINT ( 'NONE', #170 ) ;
#243 = DIRECTION ( 'NONE',  ( 0.0000000000000000000, 0.0000000000000000000, 1.000000000000000000 ) ) ;
#244 =( LENGTH_UNIT ( ) NAMED_UNIT ( * ) SI_UNIT ( $, .METRE. ) );
#245 = DIRECTION ( 'NONE',  ( 1.000000000000000000, 0.0000000000000000000, 0.0000000000000000000 ) ) ;
#246 = DIRECTION ( 'NONE',  ( 1.000000000000000000, 0.0000000000000000000, 0.0000000000000000000 ) ) ;
#247 = CC_DESIGN_DATE_AND_TIME_ASSIGNMENT ( #54, #41, ( #142 ) ) ;
#248 = ADVANCED_FACE ( 'NONE', ( #98 ), #117, .T. ) ;
#249 = CC_DESIGN_APPROVAL ( #24, ( #44 ) ) ;
#250 = CIRCLE ( 'NONE', #60, 0.9687500000000001100 ) ;
#251 = SECURITY_CLASSIFICATION_LEVEL ( 'unclassified' ) ;
#252 = LINE ( 'NONE', #143, #127 ) ;
ENDSEC;
END-ISO-10303-21;
